<?xml version="1.0" standalone="no"?>
<!DOCTYPE svg PUBLIC "-//W3C//DTD SVG 20010904//EN"
 "http://www.w3.org/TR/2001/REC-SVG-20010904/DTD/svg10.dtd">
<svg version="1.0" xmlns="http://www.w3.org/2000/svg"
 width="1201.000000pt" height="1201.000000pt" viewBox="0 0 1201.000000 1201.000000"
 preserveAspectRatio="xMidYMid meet">
<metadata>
Created by potrace 1.11, written by Peter Selinger 2001-2013
</metadata>
<g transform="translate(0.000000,1201.000000) scale(0.100000,-0.100000)"
fill="#000000" stroke="none">
<path d="M5699 12006 c-2 -2 -57 -7 -121 -10 -65 -4 -128 -9 -140 -11 -13 -2
-54 -6 -91 -10 -37 -3 -76 -8 -85 -10 -9 -1 -42 -6 -73 -9 -31 -4 -65 -8 -75
-10 -11 -2 -41 -7 -67 -10 -27 -4 -59 -9 -70 -12 -12 -2 -38 -7 -57 -10 -19
-3 -42 -7 -50 -9 -8 -2 -29 -7 -46 -9 -228 -39 -666 -165 -955 -274 -446 -170
-994 -461 -1329 -707 -96 -71 -305 -229 -310 -234 -3 -4 -34 -30 -70 -60 -36
-29 -94 -79 -130 -110 -106 -92 -470 -459 -556 -560 -43 -52 -86 -102 -94
-110 -19 -21 -143 -178 -204 -259 -118 -158 -310 -455 -410 -632 -57 -102
-246 -480 -240 -480 3 0 -3 -15 -14 -32 -17 -29 -90 -208 -167 -413 -28 -72
-139 -431 -149 -480 -3 -11 -18 -76 -35 -145 -26 -109 -67 -305 -76 -365 -1
-11 -6 -40 -9 -65 -4 -25 -9 -56 -11 -70 -2 -14 -6 -45 -10 -70 -12 -82 -14
-94 -21 -165 -3 -38 -8 -81 -10 -95 -26 -218 -26 -924 1 -1123 2 -18 7 -63 10
-101 4 -38 8 -79 10 -90 2 -12 6 -43 10 -71 3 -27 8 -57 10 -65 2 -8 6 -35 9
-60 3 -25 8 -55 10 -66 2 -12 7 -38 10 -59 38 -237 189 -799 261 -970 7 -16
25 -64 40 -105 15 -41 33 -88 40 -105 199 -462 369 -778 612 -1135 111 -164
346 -466 462 -594 207 -228 431 -445 616 -599 39 -32 84 -70 100 -84 65 -55
375 -283 470 -345 124 -81 265 -168 271 -168 2 0 21 -10 42 -23 110 -69 426
-229 597 -301 61 -26 119 -51 130 -56 164 -77 634 -225 915 -289 135 -31 142
-32 170 -37 14 -3 59 -11 100 -19 41 -8 93 -17 115 -20 23 -3 52 -7 65 -10 14
-3 49 -7 78 -11 29 -3 62 -7 73 -9 58 -11 307 -33 464 -41 110 -5 449 -5 570
0 137 6 360 26 465 41 14 2 50 7 80 10 30 4 62 9 70 10 8 1 35 6 60 10 71 11
93 14 120 20 14 3 41 8 60 11 19 3 43 7 52 10 9 3 27 7 40 9 305 58 806 214
1093 340 302 133 453 208 670 333 168 96 315 192 490 316 116 82 264 195 285
216 3 3 25 21 50 41 25 20 55 45 66 55 12 11 48 42 80 69 152 131 374 353 541
541 66 75 141 166 296 364 107 135 397 583 438 674 5 12 19 37 30 56 22 37
165 320 192 380 9 19 27 60 40 91 111 249 282 751 321 944 5 21 24 105 33 140
10 41 34 163 49 245 14 81 18 104 29 168 4 26 21 163 30 250 3 23 7 61 10 85
28 258 33 713 10 1007 -9 116 -23 260 -30 310 -2 14 -9 61 -15 105 -14 100
-18 123 -36 228 -5 30 -31 159 -41 202 -2 11 -6 31 -9 45 -32 160 -178 647
-237 790 -6 14 -11 27 -12 30 -9 27 -118 285 -145 346 -40 87 -152 311 -193
384 -44 79 -126 219 -152 260 -48 76 -199 305 -206 315 -5 5 -43 57 -86 115
-71 97 -251 321 -333 415 -46 52 -444 451 -492 493 -279 243 -586 471 -858
637 -19 12 -54 34 -77 48 -24 15 -45 27 -47 27 -2 0 -42 22 -88 48 -299 173
-752 370 -1093 476 -66 21 -148 46 -183 57 -82 26 -284 75 -427 105 -50 10
-123 24 -150 29 -67 11 -83 14 -155 25 -41 6 -86 13 -100 16 -14 2 -50 6 -80
10 -30 3 -65 7 -77 9 -12 2 -61 6 -110 10 -48 4 -101 9 -118 12 -33 5 -731 14
-736 9z"/>
</g>
</svg>
